<svg xmlns="http://www.w3.org/2000/svg" viewBox="0 0 1200 150" width="100%" role="img" aria-label="footer">
<defs>
  <linearGradient id="fsky" x1="0" y1="0" x2="0" y2="1">
    <stop offset="0%" stop-color="#0a0820"/>
    <stop offset="50%" stop-color="#0a0a1f"/>
    <stop offset="100%" stop-color="#05060f"/>
  </linearGradient>
  <radialGradient id="fplanet" cx="34%" cy="30%" r="82%">
    <stop offset="0%" stop-color="#5be9ff"/><stop offset="40%" stop-color="#4f8bff"/>
    <stop offset="75%" stop-color="#5a3fb0"/><stop offset="100%" stop-color="#0c1030"/>
  </radialGradient>
  <filter id="fglow" x="-60%" y="-60%" width="220%" height="220%">
    <feGaussianBlur stdDeviation="3" result="b"/><feMerge><feMergeNode in="b"/><feMergeNode in="SourceGraphic"/></feMerge>
  </filter>
</defs>
<rect width="1200" height="150" fill="url(#fsky)"/>
<g><circle cx="337" cy="53" r="1.33" fill="#fff"><animate attributeName="opacity" values="0.63;1;0.25;0.63" dur="3.54s" begin="0.86s" repeatCount="indefinite"/></circle><circle cx="972" cy="103" r="1.66" fill="#fff"><animate attributeName="opacity" values="0.36;1;0.14;0.36" dur="3.68s" begin="3.15s" repeatCount="indefinite"/></circle><circle cx="28" cy="47" r="1.62" fill="#fff"><animate attributeName="opacity" values="0.51;1;0.20;0.51" dur="2.61s" begin="3.01s" repeatCount="indefinite"/></circle><circle cx="476" cy="88" r="0.55" fill="#fff"><animate attributeName="opacity" values="0.85;1;0.34;0.85" dur="4.27s" begin="3.5s" repeatCount="indefinite"/></circle><circle cx="904" cy="4" r="1.65" fill="#fff"><animate attributeName="opacity" values="0.57;1;0.23;0.57" dur="4.14s" begin="2.6s" repeatCount="indefinite"/></circle><circle cx="754" cy="2" r="0.69" fill="#fff"><animate attributeName="opacity" values="0.74;1;0.30;0.74" dur="2.55s" begin="3.71s" repeatCount="indefinite"/></circle><circle cx="928" cy="20" r="1.16" fill="#fff"><animate attributeName="opacity" values="0.46;1;0.18;0.46" dur="3.56s" begin="0.75s" repeatCount="indefinite"/></circle><circle cx="76" cy="60" r="1.54" fill="#fff"><animate attributeName="opacity" values="0.39;1;0.16;0.39" dur="4.38s" begin="0.83s" repeatCount="indefinite"/></circle><circle cx="1189" cy="93" r="0.59" fill="#fff"><animate attributeName="opacity" values="0.59;1;0.24;0.59" dur="3.77s" begin="1.55s" repeatCount="indefinite"/></circle><circle cx="698" cy="118" r="0.68" fill="#fff"><animate attributeName="opacity" values="0.57;1;0.23;0.57" dur="3.02s" begin="3.82s" repeatCount="indefinite"/></circle><circle cx="1026" cy="49" r="0.88" fill="#fff"><animate attributeName="opacity" values="0.54;1;0.22;0.54" dur="2.94s" begin="3.34s" repeatCount="indefinite"/></circle><circle cx="325" cy="91" r="1.36" fill="#fff"><animate attributeName="opacity" values="0.84;1;0.34;0.84" dur="2.21s" begin="0.28s" repeatCount="indefinite"/></circle><circle cx="1069" cy="28" r="1.19" fill="#fff"><animate attributeName="opacity" values="0.44;1;0.18;0.44" dur="4.94s" begin="0.45s" repeatCount="indefinite"/></circle><circle cx="348" cy="80" r="0.92" fill="#fff"><animate attributeName="opacity" values="0.81;1;0.32;0.81" dur="3.17s" begin="2.39s" repeatCount="indefinite"/></circle><circle cx="627" cy="31" r="0.62" fill="#fff"><animate attributeName="opacity" values="0.29;1;0.12;0.29" dur="4.48s" begin="3.11s" repeatCount="indefinite"/></circle><circle cx="767" cy="20" r="1.32" fill="#fff"><animate attributeName="opacity" values="0.66;1;0.26;0.66" dur="4.72s" begin="3.83s" repeatCount="indefinite"/></circle><circle cx="833" cy="117" r="1.69" fill="#fff"><animate attributeName="opacity" values="0.83;1;0.33;0.83" dur="3.85s" begin="3.53s" repeatCount="indefinite"/></circle><circle cx="1005" cy="64" r="0.95" fill="#fff"><animate attributeName="opacity" values="0.4;1;0.16;0.4" dur="4.65s" begin="0.65s" repeatCount="indefinite"/></circle><circle cx="141" cy="56" r="1.47" fill="#fff"><animate attributeName="opacity" values="0.71;1;0.28;0.71" dur="3.55s" begin="3.35s" repeatCount="indefinite"/></circle><circle cx="106" cy="109" r="0.81" fill="#fff"><animate attributeName="opacity" values="0.42;1;0.17;0.42" dur="3.37s" begin="0.68s" repeatCount="indefinite"/></circle><circle cx="142" cy="111" r="0.91" fill="#fff"><animate attributeName="opacity" values="0.79;1;0.32;0.79" dur="4.95s" begin="2.98s" repeatCount="indefinite"/></circle><circle cx="980" cy="6" r="0.8" fill="#fff"><animate attributeName="opacity" values="0.83;1;0.33;0.83" dur="3.67s" begin="2.91s" repeatCount="indefinite"/></circle><circle cx="57" cy="27" r="1.58" fill="#fff"><animate attributeName="opacity" values="0.47;1;0.19;0.47" dur="2.63s" begin="1.48s" repeatCount="indefinite"/></circle><circle cx="872" cy="62" r="1.2" fill="#fff"><animate attributeName="opacity" values="0.76;1;0.30;0.76" dur="3.06s" begin="2.14s" repeatCount="indefinite"/></circle><circle cx="565" cy="17" r="1.42" fill="#fff"><animate attributeName="opacity" values="0.26;1;0.10;0.26" dur="4.12s" begin="3.82s" repeatCount="indefinite"/></circle><circle cx="48" cy="33" r="1.21" fill="#fff"><animate attributeName="opacity" values="0.64;1;0.26;0.64" dur="4.58s" begin="2.34s" repeatCount="indefinite"/></circle><circle cx="526" cy="87" r="0.99" fill="#fff"><animate attributeName="opacity" values="0.83;1;0.33;0.83" dur="4.74s" begin="0.53s" repeatCount="indefinite"/></circle><circle cx="194" cy="50" r="0.61" fill="#fff"><animate attributeName="opacity" values="0.27;1;0.11;0.27" dur="3.45s" begin="0.56s" repeatCount="indefinite"/></circle><circle cx="243" cy="83" r="0.84" fill="#fff"><animate attributeName="opacity" values="0.43;1;0.17;0.43" dur="4.84s" begin="1.59s" repeatCount="indefinite"/></circle><circle cx="449" cy="79" r="0.7" fill="#fff"><animate attributeName="opacity" values="0.36;1;0.14;0.36" dur="3.26s" begin="2.84s" repeatCount="indefinite"/></circle><circle cx="1126" cy="96" r="0.56" fill="#fff"><animate attributeName="opacity" values="0.68;1;0.27;0.68" dur="4.65s" begin="3.1s" repeatCount="indefinite"/></circle><circle cx="16" cy="49" r="1.06" fill="#fff"><animate attributeName="opacity" values="0.29;1;0.12;0.29" dur="4.34s" begin="0.7s" repeatCount="indefinite"/></circle><circle cx="477" cy="32" r="1.66" fill="#fff"><animate attributeName="opacity" values="0.61;1;0.24;0.61" dur="4.29s" begin="0.98s" repeatCount="indefinite"/></circle><circle cx="319" cy="39" r="1.37" fill="#fff"><animate attributeName="opacity" values="0.84;1;0.34;0.84" dur="4.49s" begin="3.21s" repeatCount="indefinite"/></circle><circle cx="1003" cy="73" r="0.62" fill="#fff"><animate attributeName="opacity" values="0.61;1;0.24;0.61" dur="3.62s" begin="2.94s" repeatCount="indefinite"/></circle><circle cx="1058" cy="39" r="0.85" fill="#fff"><animate attributeName="opacity" values="0.62;1;0.25;0.62" dur="4.32s" begin="0.76s" repeatCount="indefinite"/></circle><circle cx="667" cy="25" r="0.93" fill="#fff"><animate attributeName="opacity" values="0.44;1;0.18;0.44" dur="4.98s" begin="0.43s" repeatCount="indefinite"/></circle><circle cx="155" cy="83" r="0.59" fill="#fff"><animate attributeName="opacity" values="0.74;1;0.30;0.74" dur="4.33s" begin="1.79s" repeatCount="indefinite"/></circle><circle cx="40" cy="87" r="1.27" fill="#fff"><animate attributeName="opacity" values="0.52;1;0.21;0.52" dur="3.65s" begin="1.56s" repeatCount="indefinite"/></circle><circle cx="822" cy="9" r="0.77" fill="#fff"><animate attributeName="opacity" values="0.28;1;0.11;0.28" dur="3.41s" begin="0.99s" repeatCount="indefinite"/></circle><circle cx="828" cy="92" r="1.01" fill="#fff"><animate attributeName="opacity" values="0.73;1;0.29;0.73" dur="3.32s" begin="1.31s" repeatCount="indefinite"/></circle><circle cx="466" cy="80" r="1.6" fill="#fff"><animate attributeName="opacity" values="0.64;1;0.26;0.64" dur="2.3s" begin="0.69s" repeatCount="indefinite"/></circle><circle cx="763" cy="91" r="1.23" fill="#fff"><animate attributeName="opacity" values="0.38;1;0.15;0.38" dur="3.46s" begin="2.53s" repeatCount="indefinite"/></circle><circle cx="536" cy="31" r="1.08" fill="#fff"><animate attributeName="opacity" values="0.55;1;0.22;0.55" dur="3.06s" begin="1.53s" repeatCount="indefinite"/></circle><circle cx="1073" cy="91" r="1.69" fill="#fff"><animate attributeName="opacity" values="0.25;1;0.10;0.25" dur="3.08s" begin="1.25s" repeatCount="indefinite"/></circle><circle cx="801" cy="91" r="0.67" fill="#fff"><animate attributeName="opacity" values="0.58;1;0.23;0.58" dur="2.42s" begin="1.21s" repeatCount="indefinite"/></circle><circle cx="768" cy="95" r="1.39" fill="#fff"><animate attributeName="opacity" values="0.84;1;0.34;0.84" dur="4.97s" begin="0.67s" repeatCount="indefinite"/></circle><circle cx="887" cy="26" r="1.31" fill="#fff"><animate attributeName="opacity" values="0.47;1;0.19;0.47" dur="3.83s" begin="0.76s" repeatCount="indefinite"/></circle><circle cx="167" cy="3" r="0.89" fill="#fff"><animate attributeName="opacity" values="0.4;1;0.16;0.4" dur="4.57s" begin="0.61s" repeatCount="indefinite"/></circle><circle cx="1038" cy="25" r="0.79" fill="#fff"><animate attributeName="opacity" values="0.66;1;0.26;0.66" dur="4.21s" begin="0.63s" repeatCount="indefinite"/></circle><circle cx="804" cy="59" r="0.98" fill="#fff"><animate attributeName="opacity" values="0.53;1;0.21;0.53" dur="4.06s" begin="2.68s" repeatCount="indefinite"/></circle><circle cx="787" cy="79" r="0.83" fill="#fff"><animate attributeName="opacity" values="0.36;1;0.14;0.36" dur="4.89s" begin="0.14s" repeatCount="indefinite"/></circle><circle cx="753" cy="2" r="0.59" fill="#fff"><animate attributeName="opacity" values="0.6;1;0.24;0.6" dur="3.31s" begin="1.76s" repeatCount="indefinite"/></circle><circle cx="920" cy="30" r="1.69" fill="#fff"><animate attributeName="opacity" values="0.81;1;0.32;0.81" dur="2.61s" begin="3.89s" repeatCount="indefinite"/></circle><circle cx="389" cy="58" r="0.94" fill="#fff"><animate attributeName="opacity" values="0.25;1;0.10;0.25" dur="2.67s" begin="2.28s" repeatCount="indefinite"/></circle><circle cx="885" cy="67" r="1.51" fill="#fff"><animate attributeName="opacity" values="0.44;1;0.18;0.44" dur="3.37s" begin="3.53s" repeatCount="indefinite"/></circle><circle cx="500" cy="28" r="1.19" fill="#fff"><animate attributeName="opacity" values="0.74;1;0.30;0.74" dur="3.84s" begin="1.87s" repeatCount="indefinite"/></circle><circle cx="36" cy="84" r="1.2" fill="#fff"><animate attributeName="opacity" values="0.3;1;0.12;0.3" dur="4.72s" begin="2.99s" repeatCount="indefinite"/></circle><circle cx="385" cy="19" r="0.57" fill="#fff"><animate attributeName="opacity" values="0.74;1;0.30;0.74" dur="3.9s" begin="2.48s" repeatCount="indefinite"/></circle><circle cx="964" cy="86" r="1.46" fill="#fff"><animate attributeName="opacity" values="0.45;1;0.18;0.45" dur="2.96s" begin="1.41s" repeatCount="indefinite"/></circle><circle cx="610" cy="81" r="1.25" fill="#fff"><animate attributeName="opacity" values="0.78;1;0.31;0.78" dur="2.4s" begin="0.27s" repeatCount="indefinite"/></circle><circle cx="1048" cy="12" r="1.31" fill="#fff"><animate attributeName="opacity" values="0.36;1;0.14;0.36" dur="2.96s" begin="0.24s" repeatCount="indefinite"/></circle><circle cx="76" cy="74" r="1.09" fill="#fff"><animate attributeName="opacity" values="0.66;1;0.26;0.66" dur="4.03s" begin="0.63s" repeatCount="indefinite"/></circle><circle cx="213" cy="29" r="1.62" fill="#fff"><animate attributeName="opacity" values="0.57;1;0.23;0.57" dur="3.34s" begin="2.76s" repeatCount="indefinite"/></circle><circle cx="1074" cy="54" r="0.59" fill="#fff"><animate attributeName="opacity" values="0.75;1;0.30;0.75" dur="2.8s" begin="0.16s" repeatCount="indefinite"/></circle><circle cx="721" cy="77" r="1.14" fill="#fff"><animate attributeName="opacity" values="0.63;1;0.25;0.63" dur="2.69s" begin="2.84s" repeatCount="indefinite"/></circle><circle cx="1011" cy="61" r="0.69" fill="#fff"><animate attributeName="opacity" values="0.76;1;0.30;0.76" dur="4.46s" begin="3.63s" repeatCount="indefinite"/></circle><circle cx="113" cy="27" r="1.32" fill="#fff"><animate attributeName="opacity" values="0.64;1;0.26;0.64" dur="3.92s" begin="2.41s" repeatCount="indefinite"/></circle><circle cx="228" cy="39" r="0.97" fill="#fff"><animate attributeName="opacity" values="0.82;1;0.33;0.82" dur="4.82s" begin="3.18s" repeatCount="indefinite"/></circle><circle cx="23" cy="116" r="0.92" fill="#fff"><animate attributeName="opacity" values="0.62;1;0.25;0.62" dur="3.9s" begin="3.02s" repeatCount="indefinite"/></circle></g>
<g transform="translate(150,52)">
  <ellipse rx="64" ry="18" fill="none" stroke="#8DBDFF" stroke-opacity="0.3" stroke-width="4">
    <animateTransform attributeName="transform" type="rotate" from="0" to="360" dur="70s" repeatCount="indefinite"/></ellipse>
  <circle r="30" fill="url(#fplanet)"/>
  <path d="M -64 0 A 64 18 0 0 0 64 0" fill="none" stroke="#c77dff" stroke-opacity="0.5" stroke-width="4">
    <animateTransform attributeName="transform" type="rotate" from="0" to="360" dur="70s" repeatCount="indefinite"/></path>
</g>
<g><line x1="0" y1="0" x2="55" y2="25" stroke="#fff" stroke-width="2" stroke-linecap="round">
  <animate attributeName="opacity" values="0;1;0" dur="7s" begin="2s" repeatCount="indefinite"/></line>
  <animateTransform attributeName="transform" type="translate" from="780 10" to="1040 127" dur="7s" begin="2s" repeatCount="indefinite"/></g>
<path d="M -20 150 L -20 91 L 63 103 L 131 109 L 191 99 L 283 91 L 348 99 L 443 81 L 505 96 L 575 92 L 662 110 L 732 105 L 795 113 L 863 88 L 927 76 L 1011 114 L 1089 107 L 1163 94 L 1220 150 Z" fill="#05060f" stroke="#34d8ff" stroke-opacity="0.55" stroke-width="1.5"/>
<g stroke="#34d8ff" stroke-opacity="0.10" stroke-width="1"><line x1="0" y1="128" x2="0" y2="150"/><line x1="48" y1="128" x2="48" y2="150"/><line x1="96" y1="128" x2="96" y2="150"/><line x1="144" y1="128" x2="144" y2="150"/><line x1="192" y1="128" x2="192" y2="150"/><line x1="240" y1="128" x2="240" y2="150"/><line x1="288" y1="128" x2="288" y2="150"/><line x1="336" y1="128" x2="336" y2="150"/><line x1="384" y1="128" x2="384" y2="150"/><line x1="432" y1="128" x2="432" y2="150"/><line x1="480" y1="128" x2="480" y2="150"/><line x1="528" y1="128" x2="528" y2="150"/><line x1="576" y1="128" x2="576" y2="150"/><line x1="624" y1="128" x2="624" y2="150"/><line x1="672" y1="128" x2="672" y2="150"/><line x1="720" y1="128" x2="720" y2="150"/><line x1="768" y1="128" x2="768" y2="150"/><line x1="816" y1="128" x2="816" y2="150"/><line x1="864" y1="128" x2="864" y2="150"/><line x1="912" y1="128" x2="912" y2="150"/><line x1="960" y1="128" x2="960" y2="150"/><line x1="1008" y1="128" x2="1008" y2="150"/><line x1="1056" y1="128" x2="1056" y2="150"/><line x1="1104" y1="128" x2="1104" y2="150"/><line x1="1152" y1="128" x2="1152" y2="150"/><line x1="1200" y1="128" x2="1200" y2="150"/></g>
<line x1="0" y1="128" x2="1200" y2="128" stroke="#34d8ff" stroke-opacity="0.4" stroke-width="1" filter="url(#fglow)"/>
</svg>
