<svg xmlns="http://www.w3.org/2000/svg" viewBox="0 0 1200 440" width="100%" preserveAspectRatio="xMidYMid slice" role="img" aria-label="Sachintha Bhashitha">

<defs>
  <linearGradient id="sky" x1="0" y1="0" x2="0" y2="1">
    <stop offset="0%"   stop-color="#06090f"/>
    <stop offset="42%"  stop-color="#0a0f1a"/>
    <stop offset="74%"  stop-color="#0e1626"/>
    <stop offset="100%" stop-color="#121d33"/>
  </linearGradient>

  <radialGradient id="neb1" cx="50%" cy="50%" r="50%">
    <stop offset="0%" stop-color="#3b82f6" stop-opacity="0.22"/><stop offset="100%" stop-color="#000" stop-opacity="0"/>
  </radialGradient>
  <radialGradient id="neb2" cx="50%" cy="50%" r="50%">
    <stop offset="0%" stop-color="#22d3ee" stop-opacity="0.26"/><stop offset="100%" stop-color="#000" stop-opacity="0"/>
  </radialGradient>

  <linearGradient id="aurora" x1="0" y1="0" x2="1" y2="0">
    <stop offset="0%" stop-color="#22d3ee" stop-opacity="0"/>
    <stop offset="40%" stop-color="#38bdf8" stop-opacity="0.40"/>
    <stop offset="70%" stop-color="#7dd3fc" stop-opacity="0.30"/>
    <stop offset="100%" stop-color="#7dd3fc" stop-opacity="0"/>
  </linearGradient>

  <radialGradient id="planet" cx="36%" cy="32%" r="80%">
    <stop offset="0%" stop-color="#d6f5ff"/><stop offset="30%" stop-color="#5cc8f0"/>
    <stop offset="66%" stop-color="#2f7fd6"/><stop offset="100%" stop-color="#0c1730"/>
  </radialGradient>
  <radialGradient id="pglow" cx="50%" cy="50%" r="50%">
    <stop offset="0%" stop-color="#5cc8f0" stop-opacity="0.40"/><stop offset="100%" stop-color="#5cc8f0" stop-opacity="0"/>
  </radialGradient>

  <linearGradient id="mback" x1="0" y1="0" x2="0" y2="1"><stop offset="0%" stop-color="#22324f"/><stop offset="100%" stop-color="#16223c"/></linearGradient>
  <linearGradient id="mmid"  x1="0" y1="0" x2="0" y2="1"><stop offset="0%" stop-color="#142036"/><stop offset="100%" stop-color="#0e1830"/></linearGradient>
  <linearGradient id="mfront" x1="0" y1="0" x2="0" y2="1"><stop offset="0%" stop-color="#0a1020"/><stop offset="100%" stop-color="#070b14"/></linearGradient>

  <linearGradient id="title" x1="0" y1="0" x2="1" y2="0">
    <stop offset="0%" stop-color="#22d3ee"/><stop offset="50%" stop-color="#38bdf8"/><stop offset="100%" stop-color="#7dd3fc"/>
  </linearGradient>

  <filter id="glow" x="-60%" y="-60%" width="220%" height="220%"><feGaussianBlur stdDeviation="3.2" result="b"/><feMerge><feMergeNode in="b"/><feMergeNode in="SourceGraphic"/></feMerge></filter>
  <filter id="tglow" x="-60%" y="-60%" width="220%" height="220%"><feGaussianBlur stdDeviation="5.5" result="b"/><feMerge><feMergeNode in="b"/><feMergeNode in="SourceGraphic"/></feMerge></filter>
  <filter id="blurS" x="-50%" y="-50%" width="200%" height="200%"><feGaussianBlur stdDeviation="10"/></filter>
  <filter id="blurAur" x="-50%" y="-90%" width="200%" height="280%"><feGaussianBlur stdDeviation="16"/></filter>
  <filter id="blurMist" x="-50%" y="-90%" width="200%" height="280%"><feGaussianBlur stdDeviation="9"/></filter>
</defs>

<rect width="1200" height="440" fill="url(#sky)"/>
<ellipse cx="250" cy="140" rx="300" ry="150" fill="url(#neb1)" filter="url(#blurS)"><animate attributeName="opacity" values="0.7;1;0.7" dur="10s" repeatCount="indefinite"/></ellipse>
<ellipse cx="950" cy="120" rx="300" ry="150" fill="url(#neb2)" filter="url(#blurS)"><animate attributeName="opacity" values="0.65;0.95;0.65" dur="12s" repeatCount="indefinite"/></ellipse>
<path d="M -60 150 C 230 95, 470 195, 700 135 S 1130 150, 1280 115" fill="none" stroke="url(#aurora)" stroke-width="24" stroke-linecap="round" filter="url(#blurAur)" opacity="0"><animate attributeName="opacity" values="0;0.38;0.13;0.38;0" dur="15s" begin="0s" repeatCount="indefinite"/></path>
<path d="M -60 115 C 260 165, 520 80, 780 150 S 1150 95, 1280 140" fill="none" stroke="url(#aurora)" stroke-width="16" stroke-linecap="round" filter="url(#blurAur)" opacity="0"><animate attributeName="opacity" values="0;0.28;0.10;0.28;0" dur="18s" begin="4s" repeatCount="indefinite"/></path>
<g><circle cx="517" cy="83" r="0.64" fill="#fff"><animate attributeName="opacity" values="0.37;1;0.15;0.37" dur="5.31s" begin="1.17s" repeatCount="indefinite"/></circle><circle cx="1142" cy="156" r="0.69" fill="#fff"><animate attributeName="opacity" values="0.58;1;0.23;0.58" dur="4.45s" begin="0.01s" repeatCount="indefinite"/></circle><circle cx="573" cy="7" r="1.4" fill="#fff"><animate attributeName="opacity" values="0.55;1;0.22;0.55" dur="4.86s" begin="0.76s" repeatCount="indefinite"/></circle><circle cx="795" cy="46" r="0.8" fill="#fff"><animate attributeName="opacity" values="0.32;1;0.13;0.32" dur="4.11s" begin="1.04s" repeatCount="indefinite"/></circle><circle cx="961" cy="52" r="0.67" fill="#fff"><animate attributeName="opacity" values="0.29;1;0.12;0.29" dur="5.02s" begin="2.79s" repeatCount="indefinite"/></circle><circle cx="896" cy="152" r="1.25" fill="#fff"><animate attributeName="opacity" values="0.3;1;0.12;0.3" dur="5.0s" begin="3.93s" repeatCount="indefinite"/></circle><circle cx="434" cy="190" r="0.79" fill="#fff"><animate attributeName="opacity" values="0.3;1;0.12;0.3" dur="4.19s" begin="3.31s" repeatCount="indefinite"/></circle><circle cx="1101" cy="249" r="0.53" fill="#fff"><animate attributeName="opacity" values="0.52;1;0.21;0.52" dur="4.81s" begin="2.21s" repeatCount="indefinite"/></circle><circle cx="248" cy="89" r="1.52" fill="#fff"><animate attributeName="opacity" values="0.28;1;0.11;0.28" dur="5.01s" begin="3.9s" repeatCount="indefinite"/></circle><circle cx="1192" cy="242" r="1.13" fill="#fff"><animate attributeName="opacity" values="0.4;1;0.16;0.4" dur="4.18s" begin="1.61s" repeatCount="indefinite"/></circle><circle cx="283" cy="196" r="1.36" fill="#fff"><animate attributeName="opacity" values="0.26;1;0.10;0.26" dur="5.45s" begin="0.21s" repeatCount="indefinite"/></circle><circle cx="80" cy="190" r="0.83" fill="#fff"><animate attributeName="opacity" values="0.84;1;0.34;0.84" dur="2.77s" begin="3.94s" repeatCount="indefinite"/></circle><circle cx="1152" cy="176" r="0.99" fill="#fff"><animate attributeName="opacity" values="0.64;1;0.26;0.64" dur="4.95s" begin="2.62s" repeatCount="indefinite"/></circle><circle cx="301" cy="76" r="1.04" fill="#fff"><animate attributeName="opacity" values="0.26;1;0.10;0.26" dur="3.91s" begin="1.41s" repeatCount="indefinite"/></circle><circle cx="850" cy="147" r="0.4" fill="#fff"><animate attributeName="opacity" values="0.73;1;0.29;0.73" dur="2.85s" begin="3.31s" repeatCount="indefinite"/></circle><circle cx="54" cy="179" r="0.41" fill="#fff"><animate attributeName="opacity" values="0.3;1;0.12;0.3" dur="5.27s" begin="0.45s" repeatCount="indefinite"/></circle><circle cx="799" cy="249" r="0.97" fill="#fff"><animate attributeName="opacity" values="0.78;1;0.31;0.78" dur="2.82s" begin="1.05s" repeatCount="indefinite"/></circle><circle cx="176" cy="41" r="0.6" fill="#fff"><animate attributeName="opacity" values="0.27;1;0.11;0.27" dur="5.37s" begin="0.93s" repeatCount="indefinite"/></circle><circle cx="1027" cy="197" r="0.85" fill="#fff"><animate attributeName="opacity" values="0.84;1;0.34;0.84" dur="4.61s" begin="2.4s" repeatCount="indefinite"/></circle><circle cx="1002" cy="129" r="0.72" fill="#fff"><animate attributeName="opacity" values="0.75;1;0.30;0.75" dur="2.72s" begin="2.49s" repeatCount="indefinite"/></circle><circle cx="604" cy="138" r="0.73" fill="#fff"><animate attributeName="opacity" values="0.52;1;0.21;0.52" dur="2.99s" begin="2.37s" repeatCount="indefinite"/></circle><circle cx="144" cy="9" r="0.42" fill="#fff"><animate attributeName="opacity" values="0.33;1;0.13;0.33" dur="2.68s" begin="3.51s" repeatCount="indefinite"/></circle><circle cx="1045" cy="52" r="1.21" fill="#fff"><animate attributeName="opacity" values="0.72;1;0.29;0.72" dur="2.91s" begin="3.81s" repeatCount="indefinite"/></circle><circle cx="787" cy="72" r="0.95" fill="#fff"><animate attributeName="opacity" values="0.54;1;0.22;0.54" dur="4.56s" begin="3.07s" repeatCount="indefinite"/></circle><circle cx="397" cy="224" r="1.39" fill="#fff"><animate attributeName="opacity" values="0.51;1;0.20;0.51" dur="3.18s" begin="3.46s" repeatCount="indefinite"/></circle><circle cx="176" cy="219" r="1.03" fill="#fff"><animate attributeName="opacity" values="0.44;1;0.18;0.44" dur="3.0s" begin="1.12s" repeatCount="indefinite"/></circle><circle cx="754" cy="193" r="1.27" fill="#fff"><animate attributeName="opacity" values="0.66;1;0.26;0.66" dur="5.45s" begin="3.07s" repeatCount="indefinite"/></circle><circle cx="1074" cy="100" r="1.01" fill="#fff"><animate attributeName="opacity" values="0.49;1;0.20;0.49" dur="5.09s" begin="1.51s" repeatCount="indefinite"/></circle><circle cx="1150" cy="215" r="1.25" fill="#fff"><animate attributeName="opacity" values="0.44;1;0.18;0.44" dur="2.64s" begin="2.7s" repeatCount="indefinite"/></circle><circle cx="297" cy="35" r="0.83" fill="#fff"><animate attributeName="opacity" values="0.72;1;0.29;0.72" dur="2.55s" begin="3.64s" repeatCount="indefinite"/></circle><circle cx="1148" cy="154" r="1.21" fill="#fff"><animate attributeName="opacity" values="0.28;1;0.11;0.28" dur="2.47s" begin="2.88s" repeatCount="indefinite"/></circle><circle cx="245" cy="163" r="1.23" fill="#fff"><animate attributeName="opacity" values="0.33;1;0.13;0.33" dur="4.86s" begin="2.61s" repeatCount="indefinite"/></circle><circle cx="702" cy="15" r="1.21" fill="#fff"><animate attributeName="opacity" values="0.69;1;0.28;0.69" dur="4.21s" begin="1.51s" repeatCount="indefinite"/></circle><circle cx="615" cy="20" r="0.83" fill="#fff"><animate attributeName="opacity" values="0.64;1;0.26;0.64" dur="4.68s" begin="0.02s" repeatCount="indefinite"/></circle><circle cx="921" cy="191" r="1.41" fill="#fff"><animate attributeName="opacity" values="0.55;1;0.22;0.55" dur="4.84s" begin="2.13s" repeatCount="indefinite"/></circle><circle cx="157" cy="110" r="0.41" fill="#fff"><animate attributeName="opacity" values="0.27;1;0.11;0.27" dur="4.82s" begin="0.15s" repeatCount="indefinite"/></circle><circle cx="535" cy="209" r="1.12" fill="#fff"><animate attributeName="opacity" values="0.4;1;0.16;0.4" dur="5.21s" begin="0.7s" repeatCount="indefinite"/></circle><circle cx="179" cy="17" r="0.45" fill="#fff"><animate attributeName="opacity" values="0.85;1;0.34;0.85" dur="4.66s" begin="2.05s" repeatCount="indefinite"/></circle><circle cx="146" cy="45" r="1.29" fill="#fff"><animate attributeName="opacity" values="0.37;1;0.15;0.37" dur="4.16s" begin="2.95s" repeatCount="indefinite"/></circle><circle cx="664" cy="120" r="0.68" fill="#fff"><animate attributeName="opacity" values="0.54;1;0.22;0.54" dur="3.75s" begin="2.26s" repeatCount="indefinite"/></circle><circle cx="1140" cy="200" r="0.63" fill="#fff"><animate attributeName="opacity" values="0.67;1;0.27;0.67" dur="3.06s" begin="2.46s" repeatCount="indefinite"/></circle><circle cx="628" cy="164" r="1.2" fill="#fff"><animate attributeName="opacity" values="0.45;1;0.18;0.45" dur="4.4s" begin="0.77s" repeatCount="indefinite"/></circle><circle cx="1025" cy="90" r="1.34" fill="#fff"><animate attributeName="opacity" values="0.38;1;0.15;0.38" dur="3.5s" begin="0.9s" repeatCount="indefinite"/></circle><circle cx="323" cy="88" r="1.2" fill="#fff"><animate attributeName="opacity" values="0.75;1;0.30;0.75" dur="4.03s" begin="1.79s" repeatCount="indefinite"/></circle><circle cx="619" cy="126" r="0.69" fill="#fff"><animate attributeName="opacity" values="0.82;1;0.33;0.82" dur="3.89s" begin="2.73s" repeatCount="indefinite"/></circle><circle cx="571" cy="74" r="0.61" fill="#fff"><animate attributeName="opacity" values="0.26;1;0.10;0.26" dur="3.32s" begin="1.68s" repeatCount="indefinite"/></circle><circle cx="1067" cy="134" r="1.14" fill="#fff"><animate attributeName="opacity" values="0.66;1;0.26;0.66" dur="5.12s" begin="3.21s" repeatCount="indefinite"/></circle><circle cx="901" cy="206" r="1.43" fill="#fff"><animate attributeName="opacity" values="0.46;1;0.18;0.46" dur="3.92s" begin="1.53s" repeatCount="indefinite"/></circle><circle cx="347" cy="98" r="0.87" fill="#fff"><animate attributeName="opacity" values="0.58;1;0.23;0.58" dur="4.3s" begin="1.04s" repeatCount="indefinite"/></circle><circle cx="624" cy="242" r="0.74" fill="#fff"><animate attributeName="opacity" values="0.56;1;0.22;0.56" dur="3.77s" begin="2.27s" repeatCount="indefinite"/></circle><circle cx="1180" cy="19" r="0.87" fill="#fff"><animate attributeName="opacity" values="0.79;1;0.32;0.79" dur="3.56s" begin="1.06s" repeatCount="indefinite"/></circle><circle cx="225" cy="89" r="0.83" fill="#fff"><animate attributeName="opacity" values="0.32;1;0.13;0.32" dur="4.57s" begin="0.58s" repeatCount="indefinite"/></circle><circle cx="98" cy="126" r="1.09" fill="#fff"><animate attributeName="opacity" values="0.46;1;0.18;0.46" dur="5.34s" begin="3.53s" repeatCount="indefinite"/></circle><circle cx="524" cy="197" r="1.35" fill="#fff"><animate attributeName="opacity" values="0.35;1;0.14;0.35" dur="3.72s" begin="0.1s" repeatCount="indefinite"/></circle><circle cx="206" cy="130" r="1.16" fill="#fff"><animate attributeName="opacity" values="0.39;1;0.16;0.39" dur="4.63s" begin="2.34s" repeatCount="indefinite"/></circle><circle cx="989" cy="27" r="1.13" fill="#fff"><animate attributeName="opacity" values="0.5;1;0.20;0.5" dur="2.47s" begin="0.12s" repeatCount="indefinite"/></circle><circle cx="734" cy="124" r="0.96" fill="#fff"><animate attributeName="opacity" values="0.49;1;0.20;0.49" dur="2.64s" begin="0.78s" repeatCount="indefinite"/></circle><circle cx="742" cy="132" r="0.68" fill="#fff"><animate attributeName="opacity" values="0.78;1;0.31;0.78" dur="4.58s" begin="2.65s" repeatCount="indefinite"/></circle><circle cx="1180" cy="243" r="1.26" fill="#fff"><animate attributeName="opacity" values="0.35;1;0.14;0.35" dur="4.97s" begin="3.17s" repeatCount="indefinite"/></circle><circle cx="568" cy="89" r="1.54" fill="#fff"><animate attributeName="opacity" values="0.28;1;0.11;0.28" dur="4.09s" begin="0.35s" repeatCount="indefinite"/></circle><circle cx="386" cy="93" r="1.17" fill="#fff"><animate attributeName="opacity" values="0.67;1;0.27;0.67" dur="3.89s" begin="0.98s" repeatCount="indefinite"/></circle><circle cx="1116" cy="122" r="0.94" fill="#fff"><animate attributeName="opacity" values="0.48;1;0.19;0.48" dur="3.67s" begin="1.85s" repeatCount="indefinite"/></circle><circle cx="757" cy="43" r="0.55" fill="#fff"><animate attributeName="opacity" values="0.55;1;0.22;0.55" dur="3.28s" begin="3.17s" repeatCount="indefinite"/></circle><circle cx="640" cy="190" r="0.72" fill="#fff"><animate attributeName="opacity" values="0.81;1;0.32;0.81" dur="3.53s" begin="1.26s" repeatCount="indefinite"/></circle><circle cx="60" cy="11" r="0.43" fill="#fff"><animate attributeName="opacity" values="0.82;1;0.33;0.82" dur="3.17s" begin="3.87s" repeatCount="indefinite"/></circle><circle cx="51" cy="108" r="1.43" fill="#fff"><animate attributeName="opacity" values="0.82;1;0.33;0.82" dur="4.66s" begin="2.7s" repeatCount="indefinite"/></circle><circle cx="872" cy="58" r="1.12" fill="#fff"><animate attributeName="opacity" values="0.68;1;0.27;0.68" dur="3.17s" begin="1.32s" repeatCount="indefinite"/></circle><circle cx="239" cy="165" r="0.8" fill="#fff"><animate attributeName="opacity" values="0.61;1;0.24;0.61" dur="3.94s" begin="3.8s" repeatCount="indefinite"/></circle><circle cx="990" cy="242" r="0.89" fill="#fff"><animate attributeName="opacity" values="0.36;1;0.14;0.36" dur="4.93s" begin="0.2s" repeatCount="indefinite"/></circle><circle cx="32" cy="249" r="0.84" fill="#fff"><animate attributeName="opacity" values="0.73;1;0.29;0.73" dur="3.19s" begin="1.87s" repeatCount="indefinite"/></circle><circle cx="186" cy="212" r="0.74" fill="#fff"><animate attributeName="opacity" values="0.81;1;0.32;0.81" dur="5.06s" begin="0.38s" repeatCount="indefinite"/></circle><circle cx="959" cy="9" r="0.56" fill="#fff"><animate attributeName="opacity" values="0.47;1;0.19;0.47" dur="5.38s" begin="0.73s" repeatCount="indefinite"/></circle><circle cx="333" cy="239" r="1.07" fill="#fff"><animate attributeName="opacity" values="0.41;1;0.16;0.41" dur="3.32s" begin="3.7s" repeatCount="indefinite"/></circle><circle cx="754" cy="246" r="1.41" fill="#fff"><animate attributeName="opacity" values="0.4;1;0.16;0.4" dur="2.89s" begin="1.08s" repeatCount="indefinite"/></circle><circle cx="456" cy="105" r="0.7" fill="#fff"><animate attributeName="opacity" values="0.45;1;0.18;0.45" dur="4.41s" begin="2.22s" repeatCount="indefinite"/></circle><circle cx="990" cy="219" r="1.22" fill="#fff"><animate attributeName="opacity" values="0.68;1;0.27;0.68" dur="4.48s" begin="3.18s" repeatCount="indefinite"/></circle><circle cx="61" cy="202" r="1.24" fill="#fff"><animate attributeName="opacity" values="0.51;1;0.20;0.51" dur="3.6s" begin="3.21s" repeatCount="indefinite"/></circle><circle cx="265" cy="31" r="1.5" fill="#fff"><animate attributeName="opacity" values="0.74;1;0.30;0.74" dur="4.99s" begin="3.68s" repeatCount="indefinite"/></circle><circle cx="447" cy="162" r="1.11" fill="#fff"><animate attributeName="opacity" values="0.79;1;0.32;0.79" dur="4.08s" begin="2.73s" repeatCount="indefinite"/></circle><circle cx="214" cy="32" r="1.2" fill="#fff"><animate attributeName="opacity" values="0.27;1;0.11;0.27" dur="3.99s" begin="0.11s" repeatCount="indefinite"/></circle><circle cx="630" cy="107" r="0.53" fill="#fff"><animate attributeName="opacity" values="0.42;1;0.17;0.42" dur="2.8s" begin="2.73s" repeatCount="indefinite"/></circle><circle cx="1079" cy="38" r="1.33" fill="#fff"><animate attributeName="opacity" values="0.74;1;0.30;0.74" dur="4.6s" begin="2.41s" repeatCount="indefinite"/></circle><circle cx="1069" cy="57" r="1.32" fill="#fff"><animate attributeName="opacity" values="0.51;1;0.20;0.51" dur="3.58s" begin="1.59s" repeatCount="indefinite"/></circle><circle cx="51" cy="51" r="0.65" fill="#fff"><animate attributeName="opacity" values="0.62;1;0.25;0.62" dur="3.62s" begin="1.71s" repeatCount="indefinite"/></circle><circle cx="195" cy="140" r="0.58" fill="#fff"><animate attributeName="opacity" values="0.77;1;0.31;0.77" dur="4.88s" begin="1.43s" repeatCount="indefinite"/></circle><circle cx="1033" cy="146" r="1.02" fill="#fff"><animate attributeName="opacity" values="0.84;1;0.34;0.84" dur="2.91s" begin="1.21s" repeatCount="indefinite"/></circle><circle cx="282" cy="229" r="0.48" fill="#fff"><animate attributeName="opacity" values="0.29;1;0.12;0.29" dur="2.4s" begin="3.11s" repeatCount="indefinite"/></circle><circle cx="549" cy="100" r="0.75" fill="#fff"><animate attributeName="opacity" values="0.8;1;0.32;0.8" dur="3.12s" begin="3.6s" repeatCount="indefinite"/></circle><circle cx="33" cy="104" r="1.42" fill="#fff"><animate attributeName="opacity" values="0.49;1;0.20;0.49" dur="3.19s" begin="3.43s" repeatCount="indefinite"/></circle><circle cx="82" cy="213" r="0.54" fill="#fff"><animate attributeName="opacity" values="0.44;1;0.18;0.44" dur="4.04s" begin="3.16s" repeatCount="indefinite"/></circle><circle cx="616" cy="209" r="0.75" fill="#fff"><animate attributeName="opacity" values="0.51;1;0.20;0.51" dur="3.75s" begin="3.35s" repeatCount="indefinite"/></circle><circle cx="649" cy="19" r="1.5" fill="#fff"><animate attributeName="opacity" values="0.42;1;0.17;0.42" dur="3.38s" begin="2.71s" repeatCount="indefinite"/></circle><circle cx="609" cy="7" r="0.77" fill="#fff"><animate attributeName="opacity" values="0.64;1;0.26;0.64" dur="3.51s" begin="3.91s" repeatCount="indefinite"/></circle><circle cx="39" cy="127" r="1.0" fill="#fff"><animate attributeName="opacity" values="0.32;1;0.13;0.32" dur="5.04s" begin="3.47s" repeatCount="indefinite"/></circle><circle cx="125" cy="227" r="1.29" fill="#fff"><animate attributeName="opacity" values="0.71;1;0.28;0.71" dur="3.57s" begin="1.24s" repeatCount="indefinite"/></circle></g>
<circle cx="150" cy="70" r="1.9" fill="#9fd8ff" filter="url(#glow)"><animate attributeName="opacity" values="0.4;1;0.4" dur="3.6s" repeatCount="indefinite"/></circle>
<circle cx="1060" cy="60" r="1.9" fill="#22d3ee" filter="url(#glow)"><animate attributeName="opacity" values="0.4;1;0.4" dur="3.6s" repeatCount="indefinite"/></circle>
<circle cx="640" cy="48" r="1.9" fill="#7dd3fc" filter="url(#glow)"><animate attributeName="opacity" values="0.4;1;0.4" dur="3.6s" repeatCount="indefinite"/></circle>
<circle cx="880" cy="150" r="1.9" fill="#9fd8ff" filter="url(#glow)"><animate attributeName="opacity" values="0.4;1;0.4" dur="3.6s" repeatCount="indefinite"/></circle>
<g><line x1="0" y1="0" x2="56" y2="24" stroke="#fff" stroke-width="1.6" stroke-linecap="round"><animate attributeName="opacity" values="0;0.9;0" dur="8s" begin="2s" repeatCount="indefinite"/></line><animateTransform attributeName="transform" type="translate" from="170 40" to="430 150" dur="8s" begin="2s" repeatCount="indefinite"/></g>

<g transform="translate(1015,135)">
  <circle r="86" fill="url(#pglow)"/>
  <ellipse cx="0" cy="0" rx="118" ry="30" fill="none" stroke="#9fd8ff" stroke-opacity="0.26" stroke-width="3"/>
  <circle r="58" fill="url(#planet)"/>
  <circle r="58" fill="none" stroke="#cdeeff" stroke-opacity="0.32" stroke-width="1"/>
  <path d="M -118 0 A 118 30 0 0 0 118 0" fill="none" stroke="#38bdf8" stroke-opacity="0.5" stroke-width="3"/>
  <g><animateTransform attributeName="transform" type="rotate" from="0" to="360" dur="22s" repeatCount="indefinite"/><circle cx="104" cy="0" r="6" fill="#eaf6ff" opacity="0.9"/></g>
</g>

<ellipse cx="600.0" cy="300" rx="700" ry="40" fill="#5f86c8" opacity="0.09" filter="url(#blurMist)"/>
<path d="M -30 440 L -30 233 L 75 231 L 173 225 L 280 266 L 361 225 L 461 267 L 537 233 L 626 272 L 701 222 L 815 285 L 923 240 L 1021 270 L 1130 289 L 1230 440 Z" fill="url(#mback)"/><path d="M -30 233 L -30 233 L 75 231 L 173 225 L 280 266 L 361 225 L 461 267 L 537 233 L 626 272 L 701 222 L 815 285 L 923 240 L 1021 270 L 1130 289 " fill="none" stroke="#6db8f0" stroke-opacity="0.22" stroke-width="1.4"/>
<ellipse cx="600.0" cy="338" rx="720" ry="30" fill="#86b6e6" opacity="0.08" filter="url(#blurMist)"/>
<path d="M -30 440 L -30 320 L 59 315 L 180 337 L 264 288 L 378 334 L 481 303 L 564 282 L 676 327 L 758 335 L 865 314 L 949 325 L 1034 305 L 1141 337 L 1230 440 Z" fill="url(#mmid)"/><path d="M -30 320 L -30 320 L 59 315 L 180 337 L 264 288 L 378 334 L 481 303 L 564 282 L 676 327 L 758 335 L 865 314 L 949 325 L 1034 305 L 1141 337 " fill="none" stroke="#22d3ee" stroke-opacity="0.28" stroke-width="1.4"/>
<ellipse cx="600.0" cy="386" rx="760" ry="26" fill="#9fd8ff" opacity="0.07" filter="url(#blurMist)"/>
<path d="M -30 440 L -30 351 L 76 368 L 216 346 L 366 349 L 515 357 L 606 361 L 745 375 L 876 387 L 1023 380 L 1120 367 L 1230 440 Z" fill="url(#mfront)"/><path d="M -30 351 L -30 351 L 76 368 L 216 346 L 366 349 L 515 357 L 606 361 L 745 375 L 876 387 L 1023 380 L 1120 367 " fill="none" stroke="#7dd3fc" stroke-opacity="0.26" stroke-width="1.4"/>
<g><g fill="#070b14"><polygon points="32.8,341.1 26.5,352.6 39.1,352.6"/><polygon points="32.8,347.4 24.4,358.9 41.2,358.9"/><polygon points="32.8,353.7 22.3,364.1 43.3,364.1"/><rect x="31.6" y="362.1" width="2.4" height="5"/></g><g fill="#070b14"><polygon points="163.6,343.2 160.0,349.8 167.2,349.8"/><polygon points="163.6,346.8 158.8,353.4 168.4,353.4"/><polygon points="163.6,350.4 157.6,357.2 169.6,357.2"/><rect x="162.4" y="355.2" width="2.4" height="5"/></g><g fill="#070b14"><polygon points="203.2,329.0 197.2,340.0 209.2,340.0"/><polygon points="203.2,335.0 195.2,346.0 211.2,346.0"/><polygon points="203.2,341.0 193.2,351.0 213.2,351.0"/><rect x="202.0" y="349.0" width="2.4" height="5"/></g><g fill="#070b14"><polygon points="244.8,327.6 238.8,338.6 250.8,338.6"/><polygon points="244.8,333.6 236.8,344.6 252.8,344.6"/><polygon points="244.8,339.6 234.8,349.6 254.8,349.6"/><rect x="243.6" y="347.6" width="2.4" height="5"/></g><g fill="#070b14"><polygon points="437.0,339.8 432.8,347.5 441.2,347.5"/><polygon points="437.0,344.0 431.4,351.7 442.6,351.7"/><polygon points="437.0,348.2 430.0,355.8 444.0,355.8"/><rect x="435.8" y="353.8" width="2.4" height="5"/></g><g fill="#070b14"><polygon points="400.6,331.9 394.6,342.9 406.6,342.9"/><polygon points="400.6,337.9 392.6,348.9 408.6,348.9"/><polygon points="400.6,343.9 390.6,353.9 410.6,353.9"/><rect x="399.4" y="351.9" width="2.4" height="5"/></g><g fill="#070b14"><polygon points="424.1,340.1 420.2,347.3 428.0,347.3"/><polygon points="424.1,344.0 418.9,351.2 429.3,351.2"/><polygon points="424.1,347.9 417.6,355.1 430.6,355.1"/><rect x="422.9" y="353.1" width="2.4" height="5"/></g><g fill="#070b14"><polygon points="584.0,345.0 579.2,353.8 588.8,353.8"/><polygon points="584.0,349.8 577.6,358.6 590.4,358.6"/><polygon points="584.0,354.6 576.0,363.0 592.0,363.0"/><rect x="582.8" y="361.0" width="2.4" height="5"/></g><g fill="#070b14"><polygon points="720.5,352.5 714.2,364.1 726.8,364.1"/><polygon points="720.5,358.8 712.1,370.4 728.9,370.4"/><polygon points="720.5,365.1 710.0,375.5 731.0,375.5"/><rect x="719.3" y="373.5" width="2.4" height="5"/></g><g fill="#070b14"><polygon points="865.5,369.0 860.1,378.9 870.9,378.9"/><polygon points="865.5,374.4 858.3,384.3 872.7,384.3"/><polygon points="865.5,379.8 856.5,389.0 874.5,389.0"/><rect x="864.3" y="387.0" width="2.4" height="5"/></g><g fill="#070b14"><polygon points="890.3,372.3 885.8,380.6 894.8,380.6"/><polygon points="890.3,376.8 884.3,385.1 896.3,385.1"/><polygon points="890.3,381.3 882.8,389.3 897.8,389.3"/><rect x="889.1" y="387.3" width="2.4" height="5"/></g><g fill="#070b14"><polygon points="913.9,364.2 907.3,376.3 920.5,376.3"/><polygon points="913.9,370.8 905.1,382.9 922.7,382.9"/><polygon points="913.9,377.4 902.9,388.2 924.9,388.2"/><rect x="912.7" y="386.2" width="2.4" height="5"/></g><g fill="#070b14"><polygon points="1078.7,355.5 1073.3,365.4 1084.1,365.4"/><polygon points="1078.7,360.9 1071.5,370.8 1085.9,370.8"/><polygon points="1078.7,366.3 1069.7,375.5 1087.7,375.5"/><rect x="1077.5" y="373.5" width="2.4" height="5"/></g></g>
<g stroke="#22d3ee" stroke-opacity="0.05" stroke-width="1"><line x1="0" y1="412" x2="0" y2="440"/><line x1="60" y1="412" x2="60" y2="440"/><line x1="120" y1="412" x2="120" y2="440"/><line x1="180" y1="412" x2="180" y2="440"/><line x1="240" y1="412" x2="240" y2="440"/><line x1="300" y1="412" x2="300" y2="440"/><line x1="360" y1="412" x2="360" y2="440"/><line x1="420" y1="412" x2="420" y2="440"/><line x1="480" y1="412" x2="480" y2="440"/><line x1="540" y1="412" x2="540" y2="440"/><line x1="600" y1="412" x2="600" y2="440"/><line x1="660" y1="412" x2="660" y2="440"/><line x1="720" y1="412" x2="720" y2="440"/><line x1="780" y1="412" x2="780" y2="440"/><line x1="840" y1="412" x2="840" y2="440"/><line x1="900" y1="412" x2="900" y2="440"/><line x1="960" y1="412" x2="960" y2="440"/><line x1="1020" y1="412" x2="1020" y2="440"/><line x1="1080" y1="412" x2="1080" y2="440"/><line x1="1140" y1="412" x2="1140" y2="440"/><line x1="1200" y1="412" x2="1200" y2="440"/></g>

<g font-family="'Segoe UI','Helvetica Neue',Verdana,sans-serif">
  <text x="600.0" y="205" text-anchor="middle" font-size="50" font-weight="600"
        fill="url(#title)" filter="url(#tglow)" letter-spacing="7">SACHINTHA BHASHITHA
    <animate attributeName="opacity" values="0;1" dur="1.8s" fill="freeze"/>
  </text>
  <g opacity="0"><animate attributeName="opacity" values="0;1" dur="1.6s" begin="0.8s" fill="freeze"/>
    <line x1="450.0" y1="228" x2="586.0" y2="228" stroke="#22d3ee" stroke-opacity="0.7" stroke-width="1.4"/>
    <line x1="614.0" y1="228" x2="750.0" y2="228" stroke="#7dd3fc" stroke-opacity="0.7" stroke-width="1.4"/>
    <rect x="597.0" y="225" width="6" height="6" fill="#38bdf8" transform="rotate(45 600.0 228)"/>
  </g>
</g>

</svg>
